<?xml version="1.0" encoding="UTF-8" standalone="no"?>
<!-- Created with Inkscape (http://www.inkscape.org/) -->

<svg
   xmlns:dc="http://purl.org/dc/elements/1.1/"
   xmlns:cc="http://creativecommons.org/ns#"
   xmlns:rdf="http://www.w3.org/1999/02/22-rdf-syntax-ns#"
   xmlns:svg="http://www.w3.org/2000/svg"
   xmlns="http://www.w3.org/2000/svg"
   xmlns:sodipodi="http://sodipodi.sourceforge.net/DTD/sodipodi-0.dtd"
   xmlns:inkscape="http://www.inkscape.org/namespaces/inkscape"
   width="1000"
   height="752.00098"
   viewBox="0 0 1000 752.00098"
   id="svg4305"
   version="1.1"
   inkscape:version="0.91 r13725"
   sodipodi:docname="Superman Print.svg">
  <defs
     id="defs4307" />
  <sodipodi:namedview
     id="base"
     pagecolor="#ffffff"
     bordercolor="#666666"
     borderopacity="1.0"
     inkscape:pageopacity="0.0"
     inkscape:pageshadow="2"
     inkscape:zoom="0.24748737"
     inkscape:cx="-393.6588"
     inkscape:cy="103.7717"
     inkscape:document-units="px"
     inkscape:current-layer="layer1"
     showgrid="false"
     units="px"
     inkscape:window-width="1366"
     inkscape:window-height="705"
     inkscape:window-x="-8"
     inkscape:window-y="-8"
     inkscape:window-maximized="1" />
  <metadata
     id="metadata4310">
    <rdf:RDF>
      <cc:Work
         rdf:about="">
        <dc:format>image/svg+xml</dc:format>
        <dc:type
           rdf:resource="http://purl.org/dc/dcmitype/StillImage" />
        <dc:title></dc:title>
      </cc:Work>
    </rdf:RDF>
  </metadata>
  <g
     inkscape:label="Layer 1"
     inkscape:groupmode="layer"
     id="layer1"
     transform="translate(0,-300.36116)">
    <path
       id="path64"
       style="fill:#000000;fill-opacity:1;fill-rule:evenodd;stroke:none"
       d="M 500.00268,1052.3622 490.15365,1041.0049 7.8942706,484.40479 0,475.28611 8.4850117,466.70983 169.22738,304.22745 l 3.82901,-3.86658 653.89262,0 3.81825,3.86658 160.75313,162.48238 8.47961,8.57628 -7.89427,9.11868 -482.26474,556.60011 -9.83831,11.3573 0,0"
       inkscape:connector-curvature="0" />
    <path
       id="path66"
       style="fill:#ffffff;fill-opacity:1;fill-rule:evenodd;stroke:none"
       d="m 684.95416,529.45047 c -95.06418,-29.37527 -274.83875,17.2922 -378.55444,-55.30823 0,0 -60.49049,-39.75059 57.04819,-98.52263 0,0 29.05309,-12.57714 71.94528,-17.96349 21.84618,-2.74423 47.29582,-3.5981 74.31892,0 25.87387,3.4423 53.17625,10.94992 80.17787,24.87501 0,0 63.94356,36.29753 74.31888,100.25184 l 148.66471,0 7.01893,-108.07632 102.04553,103.14642 -126.07742,145.51828 c -12.06696,-25.38089 -42.91906,-72.9017 -110.90645,-93.92088 z m -34.56293,214.34878 c -32.83912,8.65095 -84.69424,19.0096 -160.76388,12.09326 0,0 -6.90612,-44.93774 -98.51727,-44.93774 -53.18697,0 -76.63887,15.13284 -86.97122,27.84318 L 208.3443,628.22983 c 24.16078,11.62765 66.36021,23.24943 139.55137,25.68699 155.57082,5.17691 273.09879,13.82194 312.87089,31.1093 39.75059,17.29224 22.46375,50.12165 -10.37533,58.77313 z M 499.98657,964.85421 375.92839,821.66145 c 47.25285,11.94451 135.25515,25.0264 247.48268,0.73626 z M 78.051257,477.85307 196.96475,357.65612 l 77.11144,0 C 149.80317,418.03923 147.96654,519.15034 155.19492,566.89134 Z M 719.5332,347.95205 l -6.34224,9.70407 -23.04914,35.24494 -35.24497,-35.24494 -9.69328,-9.70407 z m 101.97037,-34.56829 -643.01786,0 L 17.721832,475.86609 500.00268,1032.4755 982.26741,475.86609 821.50357,313.38376"
       inkscape:connector-curvature="0" />
  </g>
</svg>
